<svg viewBox="-0.5 -0.5 151 241" style="width:100%; max-height:360px; max-width:151.5px" xmlns="http://www.w3.org/2000/svg">
<style> g rect { height:30px; width:30px; fill:rgb(255,255,255); stroke-width:1; stroke:rgb(0,0,0); } .cx-c { font-size:12px; font-family:monospace; pointer-events:none; font-weight:bold; } .cx-a { font-size:22px; font-family:monospace; text-anchor:middle; pointer-events:none; } </style>
<g id="cx-0-3">
<rect x="90" y="0" width="30" height="30"></rect>
<text class="cx-c" x="92" y="10">5</text>
</g>
<g id="cx-1-2">
<rect x="60" y="30" width="30" height="30"></rect>
<text class="cx-c" x="62" y="40">4</text>
</g>
<g id="cx-1-3">
<rect x="90" y="30" width="30" height="30"></rect>
</g>
<g id="cx-1-4">
<rect x="120" y="30" width="30" height="30"></rect>
</g>
<g id="cx-2-3">
<rect x="90" y="60" width="30" height="30"></rect>
</g>
<g id="cx-3-0">
<rect x="0" y="90" width="30" height="30"></rect>
<text class="cx-c" x="2" y="100">2</text>
</g>
<g id="cx-3-1">
<rect x="30" y="90" width="30" height="30"></rect>
<text class="cx-c" x="32" y="100">3</text>
</g>
<g id="cx-3-2">
<rect x="60" y="90" width="30" height="30"></rect>
</g>
<g id="cx-3-3">
<rect x="90" y="90" width="30" height="30"></rect>
</g>
<g id="cx-3-4">
<rect x="120" y="90" width="30" height="30"></rect>
</g>
<g id="cx-4-1">
<rect x="30" y="120" width="30" height="30"></rect>
</g>
<g id="cx-4-3">
<rect x="90" y="120" width="30" height="30"></rect>
</g>
<g id="cx-5-1">
<rect x="30" y="150" width="30" height="30"></rect>
</g>
<g id="cx-5-3">
<rect x="90" y="150" width="30" height="30"></rect>
</g>
<g id="cx-6-1">
<rect x="30" y="180" width="30" height="30"></rect>
</g>
<g id="cx-7-0">
<rect x="0" y="210" width="30" height="30"></rect>
<text class="cx-c" x="2" y="220">1</text>
</g>
<g id="cx-7-1">
<rect x="30" y="210" width="30" height="30"></rect>
</g>
<g id="cx-7-2">
<rect x="60" y="210" width="30" height="30"></rect>
</g>
</svg>