<?xml version="1.0" encoding="UTF-8" standalone="no"?>
<svg
   version="1.1"
   width="1024"
   height="1024"
   viewBox="0 0 1024 1024"
   id="svg706"
   xmlns="http://www.w3.org/2000/svg"
   xmlns:svg="http://www.w3.org/2000/svg">
  <defs
     id="defs706" />
  <g
     id="g706"
     transform="translate(-4.9926658,85.571451)">
    <path
       d="m 865.1562,405.86423 c 0.66,0.33 1.32,0.66 2,1 -0.0174,0.87399 -0.0174,0.87399 -0.0352,1.76563 -0.0508,4.61903 0.0792,9.13647 0.53515,13.73437 2.94529,33.84941 -1.56328,70.55848 -10.854,103.21973 -0.66137,2.33455 -1.28482,4.67738 -1.90771,7.02246 -16.69019,60.88701 -57.66239,114.7214 -112.38721,146.15894 -24.00956,13.49545 -49.68361,21.93578 -77.35108,23.09887 -0.93972,0.0529 -1.87945,0.10571 -2.84765,0.16016 -31.86854,0.96571 -63.60552,-9.27677 -89.15235,-28.16016 -0.84401,-0.62092 -0.84401,-0.62092 -1.70507,-1.25439 -5.90599,-4.37816 -11.56442,-8.97479 -17.10743,-13.80811 -4.58074,-3.85586 -9.29029,-6.9898 -14.5,-9.9375 -0.98673,-0.56086 -0.98673,-0.56086 -1.9934,-1.13305 -10.40598,-5.67826 -22.73909,-6.86697 -34.1941,-3.61695 -1.51275,0.54941 -3.0146,1.13042 -4.5,1.75 -0.6355,0.24364 -1.27101,0.48727 -1.92578,0.73829 -9.00443,3.93361 -16.765,11.18478 -24.06347,17.63964 -25.82459,22.76544 -56.41254,36.42127 -91.01075,37.62207 -1.56621,0.0619 -1.56621,0.0619 -3.16406,0.125 -40.34186,0.81706 -80.29314,-14.44159 -111.83594,-39.125 -1.25103,-0.96486 -1.25103,-0.96486 -2.52734,-1.94921 -14.23496,-11.16425 -27.43494,-23.69604 -38.47266,-38.05079 -0.4104,-0.52867 -0.82081,-1.05735 -1.24365,-1.60205 -44.18125,-57.2314 -66.58932,-136.2783 -57.4685,-208.4248 0.22562,-1.65936 0.46674,-3.3166 0.71215,-4.97315 0.66,0 1.32,0 2,0 1.36719,1.82813 1.36719,1.82813 2.875,4.25 2.12724,3.3212 4.27527,6.00987 7.125,8.75 0,0.66 0,1.32 0,2 0.83918,0.36739 0.83918,0.36739 1.69532,0.74219 2.73672,1.49361 4.82994,3.33304 7.17968,5.38281 29.382,24.30941 67.31369,27.28469 103.84375,28.33985 0.67115,0.0194 1.34229,0.0388 2.03377,0.0588 6.32385,0.18175 12.64784,0.35873 18.97209,0.52592 45.28951,1.20534 45.28951,1.20534 66.52539,5.20043 1.16693,0.21544 2.33385,0.43087 3.53614,0.65284 28.11069,5.39759 52.72984,16.34662 75.21386,34.09716 0.90235,0.67547 1.80469,1.35094 2.73438,2.04688 0.83016,0.62391 1.66031,1.24781 2.51562,1.89062 0.72704,0.54528 1.45407,1.09055 2.20313,1.65235 0.51047,0.46535 1.02094,0.9307 1.54687,1.41015 0,0.66 0,1.32 0,2 0.58395,0.25911 1.1679,0.51821 1.76954,0.78516 7.92317,4.31543 13.76741,13.26441 19.23046,20.21484 0.73219,0.92684 1.46438,1.85368 2.21875,2.8086 9.901,12.84689 17.81927,26.56735 24.78125,41.1914 2.38138,-2.96627 4.01363,-5.9355 5.625,-9.375 9.50196,-19.26134 23.2618,-35.5366 38.375,-50.625 0.54141,-0.58781 1.08282,-1.17562 1.64063,-1.78125 11.14537,-11.90282 24.99425,-20.74525 39.35937,-28.21875 0.87786,-0.47824 1.75571,-0.95648 2.66016,-1.44921 5.81189,-3.07574 11.87502,-5.33044 18.07227,-7.49683 3.84965,-1.12576 3.84965,-1.12576 6.26757,-4.05396 1.81245,-0.24339 3.62697,-0.47505 5.44629,-0.66015 5.22214,-0.69495 10.31709,-2.0885 15.42871,-3.33985 1.13954,-0.27328 2.27907,-0.54656 3.45313,-0.82812 5.4751,-1.18745 5.4751,-1.18745 10.67187,-3.17188 2.12112,-0.21035 4.24754,-0.3685 6.375,-0.5 1.14211,-0.0722 2.28422,-0.14437 3.46094,-0.21875 0.64997,-0.0408 1.29994,-0.0816 1.96961,-0.12362 1.55582,-0.11175 3.11028,-0.24336 4.66333,-0.38873 7.77571,-0.72331 15.53526,-0.99582 23.33929,-1.15332 2.26817,-0.0467 4.53612,-0.0995 6.80411,-0.15394 6.44107,-0.15436 12.88218,-0.30428 19.32376,-0.43576 44.57177,-0.92067 91.39641,-2.86971 124.83862,-36.36547 4.5296,-4.72599 8.03192,-9.94823 11.22534,-15.66041 z M 312.50191,536.15012 c -19.91488,4.37808 -38.83394,3.48238 -58.34571,-2.28589 5.25204,18.01106 18.37364,33.63355 31,47 0.69481,0.74766 1.38961,1.49532 2.10547,2.26563 20.4224,21.27798 48.65764,34.2725 78.25,35.03516 2.61062,0.0186 5.22138,0.0222 7.83203,0.0117 0.67728,-4.9e-4 1.35455,-9.8e-4 2.05234,-0.001 16.80691,0.23804 16.80691,0.23804 32.76016,-4.31101 2.24454,-0.36833 4.4959,-0.69564 6.75,-1 5.05224,-0.68284 5.05224,-0.68284 10.08155,-1.51147 3.173,-0.48923 6.23458,-0.69379 9.44189,-0.80493 1.15371,-0.0419 2.30742,-0.0838 3.4961,-0.12695 1.1898,-0.0393 2.37961,-0.0786 3.60546,-0.11915 1.21301,-0.0432 2.42602,-0.0864 3.67579,-0.13085 2.98296,-0.1057 5.96601,-0.2078 8.94921,-0.30665 -7.78104,-28.51747 -24.21804,-53.91255 -50.12207,-68.9746 -9.6824,-5.28681 -20.03441,-8.16967 -30.87793,-10.0254 -1.27875,-0.22687 -2.5575,-0.45375 -3.875,-0.6875 -19.24174,-1.90392 -38.07294,1.80634 -56.77929,5.97339 z m 293.86914,23.15943 c -12.97526,14.96616 -20.39915,32.15232 -27.21485,50.55468 2.92287,0.85556 5.36697,1.07028 8.40235,0.92188 13.98812,-0.46571 26.96403,1.16108 40.69531,3.78906 11.83883,2.24932 23.27447,3.65396 35.33984,3.60156 1.26321,-0.002 2.52641,-0.004 3.82789,-0.006 8.93673,-0.0961 17.13356,-0.86162 25.73461,-3.3064 0.62649,-0.14179 1.25297,-0.28359 1.89844,-0.42968 19.47935,-5.28622 39.47094,-16.49219 53.10156,-31.57032 0,-0.66 0,-1.32 0,-2 0.5543,-0.20238 1.1086,-0.40476 1.67969,-0.61328 3.22128,-1.92517 5.20347,-4.63409 7.44531,-7.57422 0.47792,-0.62003 0.95584,-1.24007 1.44825,-1.8789 8.23845,-10.81807 16.38701,-22.21597 21.42675,-34.9336 -0.33,-0.66 -0.66,-1.32 -1,-2 -0.84562,0.27715 -1.69125,0.5543 -2.5625,0.83985 -12.24009,3.90848 -12.24009,3.90848 -18.4375,4.16015 -1.10214,0.0516 -2.20429,0.10313 -3.33984,0.15625 -14.58398,0.34967 -28.61353,-2.27973 -42.84766,-5.21875 -38.64583,-7.95042 -76.74962,-4.64438 -105.59765,25.50782 z"
       fill="#fed30e"
       id="path1" />
    <path
       d="m 519.66792,151.29392 c 3.2299,2.03834 5.17626,4.59517 7.30078,7.69531 0.43305,0.62182 0.86609,1.24363 1.31226,1.88428 4.26742,6.29486 7.66886,12.91339 10.86011,19.8042 1.05737,2.27749 2.1434,4.54004 3.22998,6.80371 10.06213,21.28662 16.29014,43.31579 20.78515,66.38281 0.16871,0.859 0.33742,1.718 0.51123,2.60303 14.94675,78.33767 -6.9463,156.77081 -37.47998,228.51026 -1.51581,3.58376 -2.88399,7.16438 -4.03125,10.88671 -0.66,0 -1.32,0 -2,0 -0.0697,-12.4868 0.12144,-24.95478 0.4278,-37.43759 1.16349,-48.3401 0.29195,-96.61625 -1.4278,-144.93741 -0.0418,-1.20088 -0.0836,-2.40176 -0.12664,-3.63903 -0.11973,-3.39916 -0.24536,-6.79805 -0.37336,-10.1969 -0.0354,-1.00697 -0.0708,-2.01394 -0.10733,-3.05142 -0.18328,-4.66001 -0.46831,-9.15151 -1.39267,-13.73765 -3.80027,59.49694 -5.23374,119.44969 -3.69921,179.04688 0.0392,1.53265 0.0392,1.53265 0.0792,3.09627 0.1257,4.75424 0.26795,9.50712 0.43956,14.25993 0.0267,0.83876 0.0533,1.67751 0.0807,2.54169 0.0492,1.54681 0.10662,3.09339 0.17386,4.63952 0.11179,3.7487 0.0702,5.19909 -2.07418,8.41571 -0.24492,-0.73218 -0.48984,-1.46437 -0.74218,-2.21875 -2.8702,-8.31368 -6.09449,-16.46205 -9.44532,-24.59375 -0.44005,-1.08023 -0.8801,-2.16046 -1.33349,-3.27343 -0.41975,-1.00934 -0.8395,-2.01867 -1.27197,-3.0586 -0.37665,-0.91112 -0.7533,-1.82225 -1.14136,-2.76098 -0.88436,-2.25148 -0.88436,-2.25148 -3.06568,-3.09449 -0.2365,-1.64271 -0.46592,-3.28675 -0.65966,-4.93505 -0.6236,-3.78362 -2.07573,-7.29287 -3.40284,-10.87745 -30.60286,-85.57143 -34.86615,-175.3541 4.0625,-259.1875 15.32335,-31.14219 15.32335,-31.14219 24.51172,-29.57031 z"
       fill="#f79b36"
       id="path2" />
    <path
       d="m 752.1562,231.86423 c 2.20915,3.17755 2.01473,4.9056 1.41797,8.73047 -0.39051,1.49096 -0.80235,2.97643 -1.23047,4.45703 -0.23009,0.82388 -0.46019,1.64775 -0.69726,2.49659 -14.77962,51.51019 -40.23068,98.22637 -74.49024,139.31591 -0.92335,1.11965 -1.84654,2.23943 -2.76953,3.35938 -10.06962,12.14127 -20.97949,23.46919 -32.10547,34.64062 -0.78439,0.78907 -1.56878,1.57814 -2.37695,2.39112 -4.20087,4.18929 -8.48634,8.21101 -12.9834,12.08056 -2.29485,1.98752 -4.49227,4.07214 -6.70215,6.15332 -10.19464,9.28191 -21.4822,17.28223 -32.625,25.375 -0.72517,0.52763 -1.45035,1.05526 -2.19751,1.59888 -3.48339,2.5089 -7.00059,4.96824 -10.57983,7.33862 -0.63156,0.42153 -1.26312,0.84305 -1.91382,1.27735 -1.74634,0.78515 -1.74634,0.78515 -4.74634,-0.21485 0.60586,-0.77601 1.21172,-1.55203 1.83594,-2.35156 6.27159,-8.0698 12.28405,-16.29026 18.16406,-24.64844 0.86891,-1.23169 0.86891,-1.23169 1.75538,-2.48828 1.8966,-2.68961 3.78997,-5.38147 5.68212,-8.07422 0.60361,-0.8573 1.20721,-1.71461 1.82911,-2.5979 4.71077,-6.70745 4.71077,-6.70745 8.73339,-13.8396 0.74379,-0.72058 1.48758,-1.44117 2.25391,-2.18359 3.01289,-3.09003 5.30117,-6.30012 7.68359,-9.87891 0.96785,-1.4303 1.93665,-2.85995 2.90625,-4.28906 0.76571,-1.13163 0.76571,-1.13163 1.54688,-2.28613 2.81115,-4.12633 5.67976,-8.21226 8.54687,-12.29981 0.59281,-0.84626 1.18562,-1.69253 1.79639,-2.56445 3.27492,-4.67156 6.56297,-9.33356 9.86109,-13.98877 6.91367,-9.76034 13.67772,-19.61974 20.40502,-29.50928 -0.66,-1.32 -1.32,-2.64 -2,-4 -7.422,8.91613 -14.52842,17.96386 -21.25585,27.41651 -3.36195,4.71058 -6.82211,9.3102 -10.43165,13.83349 -4.86628,6.11394 -9.44892,12.38779 -13.9331,18.78614 -1.46409,2.08444 -2.93894,4.161 -4.41455,6.2373 -7.26138,10.25518 -14.30787,20.64686 -21.27735,31.10156 -0.41602,0.62359 -0.83205,1.24717 -1.26068,1.88965 -5.21829,7.82809 -10.35887,15.70108 -15.42022,23.63159 -7.66294,11.8529 -7.66294,11.8529 -12.0066,16.10376 1.31191,-9.10627 3.39662,-17.87838 5.8125,-26.75 0.35758,-1.32914 0.715,-2.65832 1.07227,-3.98754 2.22859,-8.24472 4.60992,-16.41917 7.30273,-24.52417 0.95473,-2.74158 0.95473,-2.74158 0.8125,-5.73829 0.66,0 1.32,0 2,0 0.19336,-0.71285 0.38672,-1.4257 0.58594,-2.16015 4.21631,-15.5085 4.21631,-15.5085 6.72656,-20.39453 4.06758,-8.00333 7.83711,-16.09873 11.40235,-24.33936 2.00081,-4.5482 4.18198,-8.76618 6.88379,-12.93555 1.65394,-2.56159 3.23295,-5.16326 4.81152,-7.77197 0.59748,-0.98484 1.19496,-1.96969 1.81055,-2.98437 1.23237,-2.03349 2.46414,-4.06735 3.69531,-6.10157 4.07655,-6.71638 8.00252,-13.16497 13.20117,-19.08203 1.95845,-2.32006 3.81799,-4.70651 5.67334,-7.10937 4.97828,-6.44514 10.17866,-12.50851 15.79932,-18.40235 2.50591,-2.68621 2.50591,-2.68621 4.47656,-5.9375 2.02889,-2.91831 2.86321,-3.33669 5.93359,-4.78125 2.01176,-1.94584 3.94952,-3.91032 5.875,-5.9375 6.05154,-6.20747 12.49281,-11.55646 19.41065,-16.76269 1.66944,-1.26575 3.31744,-2.55468 4.96045,-3.85449 50.29316,-39.66828 50.29316,-39.66828 64.7539,-33.44532 z m -71,85 c -2.34287,2.67248 -2.34287,2.67248 -3,6 -0.66,0 -1.32,0 -2,0 -1.58826,1.71498 -1.58826,1.71498 -3.125,3.875 -0.53882,0.7193 -1.07765,1.4386 -1.63281,2.17969 -1.42158,1.84157 -1.42158,1.84157 -1.24219,3.94531 -0.99,0.33 -1.98,0.66 -3,1 -1.67156,1.71453 -1.67156,1.71453 -3.1875,3.8125 -0.5298,0.68708 -1.0596,1.37415 -1.60546,2.08204 -1.5386,2.27934 -1.5386,2.27934 -1.20704,6.10546 0.66,0.66 1.32,1.32 2,2 5.38034,-7.70455 10.75108,-15.41541 15.75,-23.375 0.65485,-1.03898 1.30969,-2.07796 1.98438,-3.14843 0.62648,-1.2259 0.62648,-1.2259 1.26562,-2.47657 -0.33,-0.66 -0.66,-1.32 -1,-2 z"
       fill="#38bda2"
       id="path5" />
    <path
       d="m 284.1562,233.86423 c 6.02562,0.25559 10.95138,2.4362 16.375,4.9375 0.87633,0.40114 1.75265,0.80228 2.65552,1.21558 23.66088,11.05059 45.40503,26.8179 64.50073,44.56567 2.23831,2.06831 4.52292,4.05681 6.84375,6.03125 3.2806,2.84631 5.90494,5.86831 8.625,9.25 1.65845,1.67485 3.32589,3.34082 5,5 13.47126,13.74068 24.72883,29.76884 35,46 0.36223,0.56896 0.72446,1.13792 1.09766,1.72413 24.04387,38.05868 46.4897,88.00541 50.90234,133.27587 -4.19101,-1.397 -5.0534,-4.29337 -7,-8 -4.89287,-8.97811 -10.34393,-17.48737 -16,-26 -0.68868,-1.03721 -1.37736,-2.07442 -2.08691,-3.14306 -4.25977,-6.41159 -8.53286,-12.81418 -12.81271,-19.21237 -2.01825,-3.01902 -4.02761,-6.0435 -6.02225,-9.07816 -5.88395,-8.94337 -12.10149,-17.61925 -18.40918,-26.26807 -1.64282,-2.26235 -3.2715,-4.53417 -4.89551,-6.81005 -11.20466,-15.68244 -23.08777,-30.78886 -35.30566,-45.69141 -1.41148,-1.72796 -2.81256,-3.46377 -4.20996,-5.20313 -0.80696,-1.00031 -1.61391,-2.00062 -2.44532,-3.03125 -0.6948,-0.86496 -1.3896,-1.72992 -2.10546,-2.62109 -1.56775,-2.02859 -1.56775,-2.02859 -3.70704,-2.94141 -1,-1.66666 -2,-3.33333 -3,-5 -0.66,-0.33 -1.32,-0.66 -2,-1 12.57768,20.06446 25.80764,39.62557 39.52637,58.92481 2.60296,3.66554 5.19405,7.33946 7.78613,11.01269 0.7622,1.07955 0.7622,1.07955 1.5398,2.18091 2.5566,3.62209 5.10816,7.24752 7.6477,10.88159 7.79448,11.14573 15.65152,22.24263 23.63428,33.2544 3.74809,5.17733 7.44358,10.38921 11.11572,15.6206 4.16074,5.92633 8.4156,11.75744 12.8125,17.51172 1.4193,1.91433 2.76384,3.88469 4.0625,5.88282 1.59221,2.7908 1.59221,2.7908 3.875,3.73046 0,0.99 0,1.98 0,3 -13.93227,-6.58107 -26.07376,-16.40363 -38,-26 -1.05303,-0.83638 -2.10637,-1.67237 -3.16015,-2.50781 -5.52623,-4.43688 -10.79173,-9.10532 -15.9585,-13.9519 -2.7212,-2.57193 -2.7212,-2.57193 -5.88135,-4.54029 0,-0.66 0,-1.32 0,-2 -0.54873,-0.22349 -1.09747,-0.44698 -1.66284,-0.67724 -3.03828,-1.71957 -5.30234,-4.02129 -7.73169,-6.48682 -0.51044,-0.5109 -1.02088,-1.0218 -1.5468,-1.54819 -1.07898,-1.08199 -2.15553,-2.16641 -3.22981,-3.25308 -1.62027,-1.63835 -3.24822,-3.26873 -4.87768,-4.89795 -5.52381,-5.54288 -10.86809,-11.18375 -15.95118,-17.13672 -1.41323,-1.54481 -2.8294,-3.08695 -4.25,-4.625 -5.58813,-6.19636 -10.6744,-12.75859 -15.75,-19.375 -0.76312,-0.99 -1.52625,-1.98 -2.3125,-3 -17.76897,-23.3535 -33.00115,-48.54761 -45.6875,-75 -0.39332,-0.81178 -0.78665,-1.62357 -1.19189,-2.45996 -5.0837,-10.55677 -9.59055,-21.17191 -13.30811,-32.29004 -0.48919,-1.46276 -0.48919,-1.46276 -0.98828,-2.95507 -5.54442,-17.16412 -5.54442,-17.16412 -3.51172,-25.29493 0.66,-0.66 1.32,-1.32 2,-2 z m 66,80 c 1,2 1,2 1,2 z m 2,3 c 0.33,0.99 0.66,1.98 1,3 0,-0.99 0,-1.98 0,-3 -0.33,0 -0.66,0 -1,0 z"
       fill="#f3574a"
       id="path6" />
    <path
       d="m 323.69917,377.69236 c 3.20713,2.66349 6.33735,5.4066 9.45703,8.17187 0.88301,0.77215 1.76602,1.5443 2.67579,2.33985 8.67966,7.68076 16.84702,15.80305 24.32421,24.66015 1.08668,1.25297 1.08668,1.25297 2.19532,2.53125 6.9298,8.11077 13.13042,16.685 19.31103,25.37452 2.08298,2.92052 4.19291,5.82054 6.30615,8.71923 0.6252,0.85852 1.2504,1.71704 1.89454,2.60157 0.42668,0.58523 0.85336,1.17047 1.29296,1.77343 -0.33,0.66 -0.66,1.32 -1,2 -9.192,-5.00112 -17.72099,-10.5038 -26.16406,-16.6748 -3.85111,-2.77976 -7.78239,-5.44438 -11.70312,-8.12451 -3.55592,-2.43086 -7.1026,-4.87321 -10.63282,-7.34131 -0.73234,-0.50991 -1.46469,-1.01981 -2.21923,-1.54517 -1.41236,-0.98385 -2.82229,-1.97119 -4.2295,-2.9624 -3.22204,-2.49628 -3.22204,-2.49628 -7.05127,-3.35181 -1.14404,-1.18459 -2.28773,-2.36953 -3.42968,-3.55615 -3.00377,-2.76185 -6.56886,-4.69227 -10.07032,-6.75635 -1.62908,-0.97627 -3.25798,-1.95283 -4.88671,-2.92968 -0.79326,-0.47277 -1.58652,-0.94553 -2.40381,-1.43262 -2.86379,-1.71764 -5.69211,-3.48985 -8.52198,-5.2627 -5.76739,-3.55312 -11.62309,-6.94401 -17.5,-10.3125 -0.88405,-0.50781 -1.76811,-1.01562 -2.67895,-1.53881 -5.09689,-2.90558 -10.2354,-5.63892 -15.50855,-8.21119 6.90237,5.76805 14.11929,10.90529 21.63269,15.83667 3.29061,2.16018 6.57036,4.33676 9.85169,6.51099 0.6883,0.45549 1.3766,0.91099 2.08575,1.38028 7.36026,4.87615 14.67105,9.82473 21.97852,14.77951 3.59977,2.4407 7.20137,4.8787 10.80292,7.31677 0.67425,0.45646 1.3485,0.91292 2.04318,1.38321 7.84034,5.30687 15.68053,10.61217 23.60525,15.79257 0.71302,0.46745 1.42603,0.9349 2.16065,1.41651 2.16847,1.4143 4.34569,2.81387 6.52685,4.20849 0.63632,0.41484 1.27263,0.82968 1.92823,1.25708 4.04621,2.55327 7.72596,4.00567 12.38427,5.11792 -2,2 -2,2 -4.32373,2.05567 -51.1643,-5.08476 -90.34277,-23.78757 -130.67627,-55.05567 -0.60392,-0.46502 -1.20785,-0.93005 -1.83007,-1.40917 -8.02497,-6.18537 -15.83892,-12.58748 -23.52686,-19.18604 -1.66177,-1.42078 -3.33291,-2.82981 -5.00635,-4.23682 -6.52459,-5.50582 -12.88961,-11.16109 -19.13672,-16.98047 -0.65846,-0.61004 -1.31693,-1.22009 -1.99536,-1.84863 -3.10782,-2.92081 -6.14084,-5.9054 -9.03589,-9.03808 -0.5008,-0.53843 -1.0016,-1.07685 -1.51757,-1.6316 -0.95118,-1.66919 -0.95118,-1.66919 -0.73951,-3.80175 0.78833,-1.86744 0.78833,-1.86744 2.93287,-3.04712 3.17974,-0.91347 6.26628,-1.48298 9.54296,-1.94532 1.13825,-0.16757 2.27649,-0.33515 3.44922,-0.50781 44.96775,-4.27398 92.95486,15.51327 127.40625,43.46094 z"
       fill="#a2397e"
       id="path9" />
    <path
       d="m 822.1562,332.86423 c 2.97,0 5.94,0 9,0 0,0.66 0,1.32 0,2 1.03448,-0.0348 1.03448,-0.0348 2.08985,-0.0703 6.20457,-0.11915 11.96249,0.17536 17.91015,2.07031 1,1 1,1 1.3711,3.20313 -0.51652,3.89294 -2.65311,5.86121 -5.3086,8.54687 -0.49491,0.51789 -0.98983,1.03577 -1.49975,1.56934 -1.50932,1.57195 -3.03532,3.12634 -4.56275,4.68066 -0.87914,0.91782 -1.75828,1.83563 -2.66406,2.78125 -4.43054,4.56043 -4.43054,4.56043 -6.33594,6.21875 -0.66,0 -1.32,0 -2,0 0,0.66 0,1.32 0,2 -1.57286,1.41439 -3.2114,2.75605 -4.875,4.0625 -3.72804,2.97486 -7.32658,5.99569 -10.8125,9.25 -6.038,5.48651 -12.55742,10.27881 -19.13427,15.0918 -2.18664,1.60187 -4.36414,3.21563 -6.54151,4.83008 -34.92909,25.74474 -71.36227,42.34668 -113.63672,51.76562 0.33,0.66 0.66,1.32 1,2 -1.09312,-0.20625 -2.18625,-0.4125 -3.3125,-0.625 -5.40909,-0.70891 -10.41414,0.45207 -15.6875,1.625 1,-3 1,-3 3.54688,-4.33984 1.7093,-0.82178 1.7093,-0.82178 3.45312,-1.66016 2.80836,-1.77027 5.52671,-3.66467 8.25,-5.5625 0.7193,-0.49435 1.4386,-0.98871 2.17969,-1.49804 3.97251,-2.73978 3.97251,-2.73978 7.57031,-5.93946 1.60869,-1.06669 3.23686,-2.10412 4.875,-3.125 4.2601,-2.68436 8.48926,-5.40723 12.6875,-8.1875 0.99129,-0.65613 1.98258,-1.31226 3.00391,-1.98828 2.47031,-1.61929 2.47031,-1.61929 4.43359,-3.69922 1.35919,-0.77829 2.73691,-1.52451 4.125,-2.25 8.07052,-4.15976 8.07052,-4.15976 13.875,-10.75 2.0245,-1.03842 4.09384,-1.91488 6.1875,-2.80468 2.00702,-1.06139 2.00702,-1.06139 2.5625,-3.32813 0.0825,-0.61617 0.165,-1.23234 0.25,-1.86719 1.42313,-0.18562 1.42313,-0.18562 2.875,-0.375 3.21168,-0.34187 3.21168,-0.34187 5.125,-2.625 -0.66,-0.66 -1.32,-1.32 -2,-2 -19.71324,10.95493 -38.27489,23.97376 -56.46313,37.27735 -13.22108,9.64329 -26.88262,18.70625 -40.53687,27.72265 -0.66,-0.33 -1.32,-0.66 -2,-1 23.5603,-32.85136 23.5603,-32.85136 37,-48 0.45198,-0.51514 0.90396,-1.03028 1.36963,-1.56103 37.10519,-42.19885 87.06445,-66.54396 142.63037,-72.43897 0,-0.33 0,-0.66 0,-1 z m -52,41 c -0.33,0.66 -0.66,1.32 -1,2 0.99,-0.33 1.98,-0.66 3,-1 -0.66,-0.33 -1.32,-0.66 -2,-1 z m -3,2 c -0.33,0.66 -0.66,1.32 -1,2 0.99,-0.33 1.98,-0.66 3,-1 -0.66,-0.33 -1.32,-0.66 -2,-1 z m -4,2 c 0,0.66 0,1.32 0,2 0.99,-0.33 1.98,-0.66 3,-1 -0.99,-0.33 -1.98,-0.66 -3,-1 z m -7.35546,3.65235 c -1.28343,0.75143 -2.5606,1.51362 -3.83204,2.28515 -0.65419,0.38608 -1.30839,0.77215 -1.98242,1.16993 -1.61543,0.95511 -3.22348,1.92268 -4.83008,2.89257 0.33,0.66 0.66,1.32 1,2 0.99,-0.66 1.98,-1.32 3,-2 0.66,0.33 1.32,0.66 2,1 0.99,-0.66 1.98,-1.32 3,-2 0,-0.66 0,-1.32 0,-2 0.76313,-0.10312 1.52625,-0.20625 2.3125,-0.3125 2.8581,-0.73114 3.84493,-1.45701 5.6875,-3.6875 -3.11855,-1.42996 -3.11855,-1.42996 -6.35546,0.65235 z m -10.64454,9.34765 c -0.33,0.66 -0.66,1.32 -1,2 0.99,-0.33 1.98,-0.66 3,-1 -0.66,-0.33 -1.32,-0.66 -2,-1 z"
       fill="#bed940"
       id="path10" />
  </g>
</svg>
