<?xml version="1.0" encoding="UTF-8" standalone="no"?>
<svg
   version="1.1"
   width="1024"
   height="1024"
   viewBox="0 0 1024 1024"
   id="svg706"
   xmlns="http://www.w3.org/2000/svg"
   xmlns:svg="http://www.w3.org/2000/svg">
  <defs
     id="defs706" />
  <path
     d="m 852,305 c 0.66,0.33 1.32,0.66 2,1 -0.0174,0.87398 -0.0174,0.87398 -0.0352,1.76562 -0.0508,4.61903 0.0792,9.13647 0.53516,13.73438 2.94528,33.84941 -1.56329,70.55848 -10.854,103.21973 -0.66138,2.33455 -1.28482,4.67738 -1.90772,7.02246 C 825.0481,492.62919 784.0759,546.46358 729.35107,577.90112 705.34151,591.39658 679.66747,599.83691 652,601 c -0.93973,0.0528 -1.87945,0.1057 -2.84766,0.16016 C 617.2838,602.12587 585.54682,591.88338 560,573 c -0.84401,-0.62093 -0.84401,-0.62093 -1.70508,-1.25439 -5.90599,-4.37817 -11.56442,-8.97479 -17.10742,-13.80811 -4.58075,-3.85587 -9.2903,-6.9898 -14.5,-9.9375 -0.98674,-0.56086 -0.98674,-0.56086 -1.99341,-1.13306 -10.40598,-5.67826 -22.73908,-6.86697 -34.19409,-3.61694 -1.51276,0.54941 -3.01461,1.13041 -4.5,1.75 -0.63551,0.24363 -1.27102,0.48727 -1.92578,0.73828 -9.00443,3.93361 -16.76501,11.18479 -24.06348,17.63965 C 434.18616,586.14336 403.59821,599.79919 369,601 c -1.56621,0.0619 -1.56621,0.0619 -3.16406,0.125 C 325.49408,601.94205 285.54279,586.6834 254,562 c -1.25104,-0.96486 -1.25104,-0.96486 -2.52734,-1.94922 C 237.2377,548.88654 224.03771,536.35475 213,522 c -0.41041,-0.52868 -0.82081,-1.05735 -1.24365,-1.60205 C 167.5751,463.16654 145.16703,384.11964 154.28784,311.97314 154.51346,310.31379 154.75459,308.65655 155,307 c 0.66,0 1.32,0 2,0 1.36719,1.82812 1.36719,1.82812 2.875,4.25 2.12723,3.3212 4.27526,6.00987 7.125,8.75 0,0.66 0,1.32 0,2 0.83918,0.36738 0.83918,0.36738 1.69531,0.74219 2.73673,1.4936 4.82994,3.33303 7.17969,5.38281 29.382,24.30941 67.31368,27.28468 103.84375,28.33984 0.67114,0.0194 1.34228,0.0388 2.03376,0.0588 6.32386,0.18175 12.64784,0.35873 18.9721,0.52592 45.28951,1.20534 45.28951,1.20534 66.52539,5.20044 1.16692,0.21543 2.33385,0.43087 3.53613,0.65283 C 398.89682,368.30042 423.51598,379.24945 446,397 c 0.90234,0.67547 1.80469,1.35094 2.73438,2.04687 0.83015,0.62391 1.66031,1.24782 2.51562,1.89063 0.72703,0.54527 1.45406,1.09055 2.20313,1.65234 0.51046,0.46536 1.02093,0.93071 1.54687,1.41016 0,0.66 0,1.32 0,2 0.58395,0.2591 1.16789,0.5182 1.76953,0.78516 7.92318,4.31542 13.76741,13.26441 19.23047,20.21484 0.73219,0.92684 1.46438,1.85367 2.21875,2.80859 C 488.11974,442.65548 496.03802,456.37594 503,471 c 2.38138,-2.96628 4.01362,-5.93551 5.625,-9.375 9.50195,-19.26135 23.26179,-35.53661 38.375,-50.625 0.54141,-0.58781 1.08281,-1.17562 1.64063,-1.78125 C 559.78599,397.31593 573.63488,388.4735 588,381 c 0.87785,-0.47824 1.7557,-0.95648 2.66016,-1.44922 5.81188,-3.07574 11.87501,-5.33044 18.07226,-7.49683 C 612.58208,370.9282 612.58208,370.9282 615,368 c 1.81245,-0.2434 3.62696,-0.47506 5.44629,-0.66016 5.22213,-0.69495 10.31709,-2.0885 15.42871,-3.33984 1.13953,-0.27328 2.27906,-0.54656 3.45313,-0.82813 5.47509,-1.18744 5.47509,-1.18744 10.67187,-3.17187 2.12112,-0.21036 4.24753,-0.3685 6.375,-0.5 1.14211,-0.0722 2.28422,-0.14437 3.46094,-0.21875 0.64997,-0.0408 1.29994,-0.0816 1.9696,-0.12363 1.55583,-0.11175 3.11029,-0.24335 4.66333,-0.38873 7.77572,-0.72331 15.53526,-0.99582 23.3393,-1.15332 2.26816,-0.0467 4.53611,-0.0995 6.8041,-0.15393 6.44107,-0.15436 12.88219,-0.30429 19.32377,-0.43576 44.57176,-0.92067 91.3964,-2.86971 124.83862,-36.36548 C 845.30426,315.93442 848.80658,310.71218 852,305 Z M 299.3457,435.28589 C 279.43083,439.66396 260.51177,438.76826 241,433 c 5.25203,18.01105 18.37364,33.63355 31,47 0.6948,0.74766 1.38961,1.49531 2.10547,2.26562 20.42239,21.27798 48.65764,34.2725 78.25,35.03516 2.61061,0.0187 5.22137,0.0222 7.83203,0.0117 0.67727,-4.9e-4 1.35454,-9.9e-4 2.05234,-0.001 16.80691,0.23805 16.80691,0.23805 32.76016,-4.311 2.24454,-0.36833 4.4959,-0.69565 6.75,-1 5.05223,-0.68284 5.05223,-0.68284 10.08154,-1.51147 3.173,-0.48923 6.23459,-0.69379 9.4419,-0.80494 1.15371,-0.0419 2.30742,-0.0838 3.49609,-0.12695 1.18981,-0.0393 2.37961,-0.0786 3.60547,-0.11914 1.21301,-0.0432 2.42602,-0.0864 3.67578,-0.13086 2.98297,-0.1057 5.96602,-0.20779 8.94922,-0.30664 C 433.21895,480.483 416.78196,455.08793 390.87793,440.02587 381.19552,434.73858 370.84352,431.85572 360,430 c -1.27875,-0.22688 -2.5575,-0.45375 -3.875,-0.6875 -19.24175,-1.90392 -38.07295,1.80633 -56.7793,5.97339 z m 293.86914,23.15942 C 580.23959,473.41148 572.81569,490.59763 566,509 c 2.92286,0.85555 5.36696,1.07027 8.40234,0.92187 13.98812,-0.46571 26.96404,1.16109 40.69532,3.78907 11.83883,2.24932 23.27447,3.65396 35.33984,3.60156 1.2632,-0.002 2.5264,-0.004 3.82788,-0.006 8.93673,-0.0962 17.13356,-0.86162 25.73462,-3.3064 0.62648,-0.1418 1.25297,-0.28359 1.89844,-0.42969 C 701.37779,508.28409 721.36938,497.07812 735,482 c 0,-0.66 0,-1.32 0,-2 0.5543,-0.20238 1.10859,-0.40477 1.67969,-0.61328 3.22127,-1.92517 5.20346,-4.63409 7.44531,-7.57422 0.47792,-0.62004 0.95584,-1.24008 1.44824,-1.87891 C 753.8117,459.11553 761.96025,447.71763 767,435 c -0.33,-0.66 -0.66,-1.32 -1,-2 -0.84563,0.27715 -1.69125,0.5543 -2.5625,0.83984 C 751.1974,437.74833 751.1974,437.74833 745,438 c -1.10215,0.0516 -2.2043,0.10312 -3.33984,0.15625 -14.58399,0.34967 -28.61353,-2.27974 -42.84766,-5.21875 -38.64583,-7.95043 -76.74962,-4.64438 -105.59766,25.50781 z"
     fill="#fed30e"
     id="path1" />
  <path
     d="m 506.51172,50.429687 c 3.2299,2.038333 5.17626,4.595165 7.30078,7.695313 0.43305,0.621811 0.86609,1.243623 1.31226,1.884277 4.26742,6.294856 7.66885,12.913386 10.86011,19.804199 1.05736,2.277486 2.14339,4.540035 3.22997,6.803711 C 539.27698,107.9038 545.50498,129.93298 550,153 c 0.16871,0.859 0.33741,1.718 0.51123,2.60303 14.94675,78.33767 -6.9463,156.77081 -37.47998,228.51025 -1.51581,3.58377 -2.884,7.16439 -4.03125,10.88672 -0.66,0 -1.32,0 -2,0 -0.0697,-12.4868 0.12144,-24.95478 0.4278,-37.43759 1.16349,-48.3401 0.29195,-96.61625 -1.4278,-144.93741 -0.0418,-1.20088 -0.0836,-2.40176 -0.12665,-3.63904 -0.11973,-3.39916 -0.24535,-6.79804 -0.37335,-10.1969 -0.0354,-1.00696 -0.0708,-2.01393 -0.10733,-3.05142 C 505.20939,191.07763 504.92435,186.58614 504,182 c -3.80028,59.49694 -5.23375,119.44968 -3.69922,179.04688 0.0392,1.53265 0.0392,1.53265 0.0792,3.09627 0.1257,4.75424 0.26795,9.50712 0.43956,14.25993 0.0266,0.83876 0.0533,1.67751 0.0807,2.54169 0.0492,1.54681 0.10661,3.09339 0.17385,4.63952 0.11179,3.7487 0.0703,5.19909 -2.07417,8.41571 -0.24492,-0.73219 -0.48984,-1.46437 -0.74219,-2.21875 -2.8702,-8.31368 -6.09448,-16.46206 -9.44531,-24.59375 -0.44005,-1.08023 -0.88011,-2.16047 -1.3335,-3.27344 -0.41975,-1.00933 -0.8395,-2.01867 -1.27197,-3.05859 -0.37665,-0.91112 -0.75329,-1.82225 -1.14136,-2.76099 C 484.18132,355.84301 484.18132,355.84301 482,355 c -0.2365,-1.64271 -0.46592,-3.28675 -0.65967,-4.93506 -0.62359,-3.78361 -2.07572,-7.29287 -3.40283,-10.87744 C 447.33463,253.61607 443.07135,163.83339 482,79.999999 497.32334,48.857803 497.32334,48.857803 506.51172,50.429687 Z"
     fill="#f79b36"
     id="path2" />
  <path
     d="m 930,628 c 1.74219,1.51562 1.74219,1.51562 3,3 -6.3235,20.12805 -12.68301,40.24093 -19.375,60.25 -0.37356,1.11935 -0.37356,1.11935 -0.75467,2.26132 -2.34207,7.01624 -4.69906,14.02557 -7.13986,21.00821 -0.33016,0.95552 -0.66032,1.91104 -1.00049,2.89551 -0.57733,1.66592 -1.1642,3.3286 -1.76465,4.98633 C 900.76197,728.78303 900,735.25275 900,742 c 8.29055,-1.33241 13.05831,-5.16066 18.125,-11.77344 2.07894,-3.57751 2.82019,-6.55287 3.625,-10.60156 3.93775,-17.35151 13.64282,-33.51701 28.82812,-43.26172 9.63807,-5.42529 19.79225,-8.73406 30.91016,-5.67969 4.62806,2.1005 7.30657,4.6415 9.51172,9.31641 2.18079,7.89023 0.36018,14.68742 -3.49219,21.72656 C 978.24004,715.84698 960.82698,725.11513 945,730 c 0.0603,1.43865 0.1492,2.87612 0.25,4.3125 0.0464,0.80051 0.0928,1.60102 0.14062,2.42578 0.44178,2.38675 0.44178,2.38675 2.3711,4.02735 4.7133,2.5993 9.9455,1.80434 15.01953,0.54296 C 971.6594,738.32843 978.5306,733.66544 985,727 c 0.66,0 1.32,0 2,0 0.33,-0.99 0.66,-1.98 1,-3 1.32,0.33 2.64,0.66 4,1 -0.36373,8.72962 -5.40382,13.6549 -11.5,19.5 -10.93697,9.49185 -23.47052,16.02723 -38.25,15.5 -7.39363,-0.8225 -12.20605,-3.49816 -17.125,-9 -1.88403,-2.65981 -3.12696,-4.91514 -4.125,-8 -0.92813,0.825 -1.85625,1.65 -2.8125,2.5 -3.16518,2.70199 -6.41846,5.2559 -9.75,7.75 -0.88816,0.66516 -1.77633,1.33031 -2.69141,2.01563 C 899.18023,759.41249 892.57551,759.78977 885,759 c -3.5625,-1.375 -3.5625,-1.375 -6,-4 -1.33812,-3.27096 -2.24946,-6.55016 -3,-10 -0.66,0 -1.32,0 -2,0 -0.33,0.99 -0.66,1.98 -1,3 -8.26522,6.78929 -16.59762,12.40711 -27.625,12.0625 -4.65734,-0.61881 -7.58981,-1.86466 -10.9375,-5.16406 C 831.9212,751.57529 830.39703,747.90473 829,744 c -0.59426,0.58008 -1.18852,1.16016 -1.80078,1.75781 -7.31567,6.89471 -15.49196,13.91575 -26,14.40625 C 797.19886,759.86563 793.42362,759.14058 790,757 c -4.79186,-6.10643 -5.0658,-11.24743 -4.34052,-18.83167 1.11991,-7.13132 4.12314,-13.87401 6.77802,-20.54333 0.92586,-2.37122 1.84412,-4.74489 2.75099,-7.12344 0.55992,-1.46399 1.13111,-2.92374 1.71616,-4.37787 1.9592,-5.05739 2.66627,-9.71436 3.09535,-15.12369 -1.82685,-0.68157 -1.82685,-0.68157 -4,-1 -1.80271,0.93354 -3.60457,1.87811 -5.32422,2.95703 C 789,694 789,694 786.6875,695 c -2.21258,1.31116 -2.5662,2.70381 -3.6875,5 -0.88191,1.28054 -1.77906,2.55065 -2.6875,3.8125 -7.79113,11.7056 -11.85511,24.4141 -15.73437,37.80469 -1.0169,3.4956 -2.0487,6.98381 -3.15235,10.45312 -0.22518,0.71173 -0.45036,1.42345 -0.68237,2.15674 C 760,756 760,756 757.9375,758 c -5.37384,1.82939 -10.50182,2.58456 -16.0625,1.25 -3.18517,-3.8222 -2.23929,-8.4819 -1.875,-13.25 -0.77344,0.60328 -1.54687,1.20656 -2.34375,1.82813 -17.09741,13.11929 -17.09741,13.11929 -28.86328,11.95312 -3.40109,-0.65624 -5.58616,-1.59621 -8.16797,-3.90625 -2.04168,-3.6122 -2.79889,-6.81328 -3.625,-10.875 -0.60586,0.59168 -1.21172,1.18336 -1.83594,1.79297 C 687.47705,754.04241 679.88583,759.82721 669,760 c -6.42425,-0.62595 -10.57786,-2.26199 -15,-7 -5.64608,-10.12401 -4.33416,-21.18601 -1.45703,-32.05029 5.64128,-19.33576 16.35835,-37.00618 33.85156,-47.64502 C 693.20516,669.89427 699.46934,669.16326 707,670 c 4.10165,1.43806 6.55922,3.33883 9,7 1.01063,-0.78375 2.02125,-1.5675 3.0625,-2.375 4.76329,-3.3736 8.85169,-4.76177 14.75,-4.375 C 737,671 737,671 739,673 c -0.33958,5.74261 -1.70518,10.79058 -3.58203,16.19922 -0.25545,0.75691 -0.5109,1.51381 -0.77409,2.29365 -0.81166,2.4007 -1.63353,4.79774 -2.45638,7.19463 -7.22154,18.69274 -7.22154,18.69274 -10.9375,38.125 -0.0851,1.49467 -0.0851,1.49467 -0.17187,3.01953 -0.0258,0.71543 -0.0516,1.43086 -0.0781,2.16797 8.13429,-0.83211 13.05627,-3.45633 19,-9 0.85078,-0.7367 0.85078,-0.7367 1.71875,-1.48828 5.02982,-4.96566 6.59684,-11.54099 8.56006,-18.13233 0.81875,-2.70126 1.68292,-5.3857 2.55322,-8.0708 1.86563,-5.76494 1.86563,-5.76494 3.71485,-11.53515 0.2562,-0.80003 0.5124,-1.60005 0.77636,-2.42432 0.70089,-2.43289 1.21431,-4.86085 1.67676,-7.34912 -0.63937,-0.26813 -1.27875,-0.53625 -1.9375,-0.8125 C 755,682 755,682 754,679 c 0.80438,-0.78375 1.60875,-1.5675 2.4375,-2.375 2.5494,-2.34483 2.5494,-2.34483 3.5625,-4.625 1.89063,-0.37891 1.89063,-0.37891 4.25,-0.5625 2.52608,-0.22312 4.89216,-0.46796 7.375,-1 3.18228,-0.58621 6.14857,-0.62013 9.375,-0.4375 0.66,0.66 1.32,1.32 2,2 -0.24219,2.24219 -0.24219,2.24219 -0.875,4.875 -0.76973,3.26406 -1.125,5.71697 -1.125,9.125 0.75023,-0.66387 1.50047,-1.32773 2.27344,-2.01172 9.35018,-8.12171 18.16406,-14.40514 30.99609,-14.26953 4.9311,0.50792 7.53232,2.84347 10.60547,6.53125 2.38962,5.8413 1.18311,11.57567 -0.75,17.375 -0.20907,0.64389 -0.41814,1.28777 -0.63354,1.95117 -1.41028,4.30846 -2.89248,8.59215 -4.37043,12.87778 -0.91939,2.67275 -1.83,5.34846 -2.74048,8.02426 -0.68245,1.99087 -1.37949,3.97621 -2.07733,5.96173 C 812.11543,728.84119 810.35759,734.21616 811,741 c 7.07222,-0.43299 11.10661,-3.03328 16.00391,-8.05469 2.72725,-4.02417 3.86066,-8.1927 5.24609,-12.82031 4.92422,-15.42613 11.21902,-26.71467 22.75,-38.125 0.81984,-0.86883 1.63969,-1.73766 2.48437,-2.63281 2.56677,-2.41532 4.97036,-3.9747 8.07813,-5.61719 0.92941,-0.50016 1.85883,-1.00031 2.81641,-1.51563 C 874.05265,669.56239 879.79848,669.32592 886,670 c 3.5,1.875 3.5,1.875 6,4 0.99,0.66 1.98,1.32 3,2 1.29932,-3.80993 2.58804,-7.62338 3.875,-11.4375 0.36481,-1.06928 0.72961,-2.13856 1.10547,-3.24023 C 902.02241,655.25213 903.74506,649.28129 905,643 c -0.80438,-0.2475 -1.60875,-0.495 -2.4375,-0.75 C 900,641 900,641 899.1875,638.875 899.12563,638.25625 899.06375,637.6375 899,637 c 8.5866,-6.67847 20.22178,-9.69537 31,-9 z M 686.66016,696.23437 C 679.35099,708.41059 673.40857,721.5099 674,736 c 0.71105,2.47968 1.48801,3.88321 3,6 4.90541,0.52558 7.95067,0.4896 12.0625,-2.375 9.54574,-7.99222 14.60722,-19.81324 18.25,-31.44531 0.46819,-1.48437 0.96973,-2.95854 1.5,-4.42188 3.45935,-9.38724 3.45935,-9.38724 1.75,-18.82031 -2.85165,-2.15612 -4.83382,-2.73199 -8.41797,-2.47266 -7.17034,1.78933 -11.61277,7.87834 -15.48437,13.76953 z m 182,-3.42968 C 861.6304,702.10051 854.72682,715.25325 855,727 c -0.495,0.495 -0.495,0.495 -1,1 -0.23875,2.22831 -0.23875,2.22831 -0.25,4.8125 -0.0258,0.8727 -0.0516,1.74539 -0.0781,2.64453 0.39267,3.04323 1.19092,4.36609 3.32813,6.54297 3.4991,0.6861 5.83271,0.61744 9.02343,-1.07031 13.56457,-9.51079 18.00244,-26.02551 22.53907,-41.17969 0.27585,-0.89292 0.55171,-1.78584 0.83593,-2.70581 1.43702,-4.96998 1.43702,-4.96998 0.87891,-10.02857 C 889.02889,684.88305 889.02889,684.88305 887,683 c -8.66391,-0.99968 -13.10789,3.57233 -18.33984,9.80469 z M 957,691 c -5.1192,7.23139 -9.14626,15.29015 -11,24 0.33,0.99 0.66,1.98 1,3 11.25684,-5.64911 21.81466,-12.44399 26,-25 0.17813,-2.69285 0.0873,-5.29441 0,-8 -1.13307,-1.32772 -1.13307,-1.32772 -4.0625,-1.5 -5.66605,0.7195 -8.27778,3.24234 -11.9375,7.5 z"
     fill="#fed40b"
     id="path3" />
  <path
     d="m 361,628 c 2.5,2.4375 2.5,2.4375 4,5 0.43313,0.72187 0.86625,1.44375 1.3125,2.1875 1.35422,5.54001 0.82707,10.92631 -2.125,15.8125 -3.9026,3.56809 -6.76859,4.56274 -12.21875,4.35937 C 350,655 350,655 347.0625,653.1875 344.12022,648.64034 344.10253,644.32199 344,639 c -3.58636,-1.02467 -5.49635,-1.19936 -9,0.1875 -9.22908,7.16215 -11.86685,23.19089 -15,33.8125 0.66,-0.33 1.32,-0.66 2,-1 1.65905,-0.15317 3.32352,-0.24951 4.98828,-0.31641 1.01111,-0.0421 2.02222,-0.0843 3.06397,-0.12768 1.07588,-0.0391 2.15176,-0.0782 3.26025,-0.11841 1.0862,-0.041 2.17239,-0.082 3.2915,-0.12427 3.13179,-0.11303 6.26368,-0.21614 9.396,-0.31323 0.78262,-0.0248 1.56524,-0.0496 2.37158,-0.0752 7.80963,-0.22072 7.80963,-0.22072 10.62842,0.0752 0.66,0.66 1.32,1.32 2,2 -0.27408,6.70572 -2.88384,12.86352 -5.125,19.125 -0.81608,2.31736 -1.63117,4.63508 -2.44531,6.95312 -0.40767,1.15694 -0.81533,2.31387 -1.23535,3.50586 -1.77681,5.082 -3.49354,10.18317 -5.19434,15.29102 -0.2902,0.86641 -0.5804,1.73282 -0.8794,2.62549 -0.26667,0.80163 -0.53334,1.60327 -0.8081,2.4292 -0.23074,0.69335 -0.46148,1.38671 -0.69922,2.10107 -1.20567,3.8714 -1.72935,7.14784 -1.67578,11.21924 0.009,0.89203 0.0181,1.78406 0.0273,2.70313 0.0116,0.67546 0.0232,1.35093 0.0352,2.04687 6.74725,0.14668 9.95059,-3.12197 14.76562,-7.57812 4.13115,-4.47782 5.61837,-8.38341 6.92188,-14.29688 C 368.73655,702.64989 379.20632,685.94803 393,676 c 7.76271,-4.51977 14.00507,-6.58754 23,-6 5.29832,1.41919 8.21053,3.08421 12,7 1.11375,-0.92813 1.11375,-0.92813 2.25,-1.875 4.07979,-3.15257 6.68018,-4.39779 11.875,-4.3125 0.86883,0.006 1.73766,0.0129 2.63281,0.0195 C 447,671 447,671 449,672 c 0.41231,7.36048 -0.92942,12.88376 -3.42969,19.77344 -0.35039,1.00439 -0.70078,2.00878 -1.0618,3.04361 -1.11473,3.19077 -2.24759,6.37467 -3.38351,9.55795 -1.12676,3.17677 -2.24921,6.35487 -3.36209,9.53653 -0.69042,1.97206 -1.38885,3.94135 -2.09686,5.90717 -2.19661,6.25059 -4.03798,12.55907 -4.66605,19.1813 0.33,0.66 0.66,1.32 1,2 2.78938,0.4189 2.78938,0.4189 6,0 2.75042,-2.41667 2.75042,-2.41667 5,-5 0.66,0 1.32,0 2,0 0.33,-0.99 0.66,-1.98 1,-3 1.65,-0.33 3.3,-0.66 5,-1 1.25,2 1.25,2 2,5 -2.12665,8.17538 -9.27427,14.38027 -16.0625,18.875 -6.92482,3.98009 -13.172,4.8785 -20.9375,3.125 -3.40656,-1.66704 -4.59976,-2.9636 -5.96094,-6.48828 -0.76793,-2.49051 -1.44361,-4.975 -2.03906,-7.51172 -0.3893,0.4357 -0.77859,0.87141 -1.17969,1.32031 C 400.48193,753.06763 392.50345,759.13768 383,760 c -5.86056,0.14813 -10.85844,-0.5271 -15.52734,-4.25781 C 364.6015,752.34555 363.31161,748.19551 362,744 c -0.47309,0.36352 -0.94617,0.72703 -1.43359,1.10156 -10.85531,8.25257 -19.38064,14.68564 -33.49219,14.39063 C 322.49713,758.75939 319.71105,756.71414 317,753 c -2.54146,-7.62439 -0.30677,-14.63185 1.875,-22.0625 0.45452,-1.58736 0.45452,-1.58736 0.91821,-3.20679 C 323.8646,713.71873 328.44138,699.8593 333,686 c -5.61,0 -11.22,0 -17,0 -1.64853,5.20749 -3.29444,10.41578 -4.9375,15.625 -0.2486,0.78732 -0.49719,1.57463 -0.75333,2.3858 -3.05427,9.68076 -6.0383,19.37638 -8.89535,29.11713 -16.96026,57.70472 -16.96026,57.70472 -40.09351,71.75879 -9.22,4.42374 -18.19608,5.3295 -27.94531,2.23828 -4.44178,-2.104 -7.20999,-5.79498 -9.375,-10.125 -0.76039,-6.81855 -0.25429,-11.54578 4,-17 3.0887,-2.53244 5.76318,-4.08066 9.875,-3.8125 C 240,777 240,777 241,778 c 0.13934,3.55321 0.0334,6.80316 -0.5625,10.3125 -0.70033,2.64943 -0.70033,2.64943 0.5625,4.6875 3.02934,0.65772 3.02934,0.65772 6,1 0.33,-0.66 0.66,-1.32 1,-2 0.88688,-0.0412 1.77375,-0.0825 2.6875,-0.125 4.22711,-1.1166 5.34163,-2.59986 7.74609,-6.14063 C 265.19798,773.92622 269.14878,760.97847 273,748 c -0.90621,0.61488 -1.81242,1.22977 -2.74609,1.86328 C 253.32866,761.16928 253.32866,761.16928 243,760 c -4.6749,-1.74163 -7.32172,-3.79127 -10,-8 -0.85084,-2.32532 -1.43083,-4.58103 -2,-7 -0.55687,0.51949 -1.11375,1.03898 -1.6875,1.57422 C 222.0985,753.16674 215.15693,759.34471 205,760 c -5.09644,-0.48221 -10.00789,-1.69225 -14,-5 -5.77554,-7.88997 -5.71756,-16.27172 -4.53906,-25.67969 3.21734,-20.6007 13.21141,-40.6828 30.2539,-53.33594 C 224.38698,671.23112 230.96828,669.25224 240,670 c 2.90896,0.77919 5.3244,1.6622 8,3 0.72159,1.64363 1.39351,3.3105 2,5 0.50789,-0.40992 1.01578,-0.81984 1.53906,-1.24219 5.2959,-4.14548 9.23084,-6.97315 16.21094,-6.50781 C 271,671 271,671 273,673 c 0.67919,6.87686 -1.12135,12.25445 -3.46484,18.66797 -0.35277,0.99784 -0.70553,1.99568 -1.06899,3.02376 -1.12282,3.16958 -2.26245,6.33277 -3.40367,9.49577 -1.13444,3.17475 -2.26533,6.35073 -3.39296,9.52791 -0.70093,1.97162 -1.40635,3.94166 -2.11679,5.90988 -0.32026,0.89475 -0.64051,1.78951 -0.97047,2.71138 -0.28202,0.78195 -0.56404,1.5639 -0.8546,2.36955 -1.2911,4.06978 -1.85379,7.84467 -1.79018,12.10628 0.009,0.7902 0.0181,1.58039 0.0273,2.39453 0.0116,0.59168 0.0232,1.18336 0.0352,1.79297 3.12454,1.04151 4.78057,1.02322 7.89844,0.0547 8.15403,-4.09218 14.76657,-11.87142 17.74902,-20.40772 0.5385,-1.6579 1.06703,-3.31907 1.58691,-4.98291 0.28289,-0.87935 0.56578,-1.7587 0.85724,-2.6647 0.89493,-2.78873 1.77683,-5.58138 2.65839,-8.37436 0.60721,-1.90001 1.21528,-3.79976 1.82422,-5.69922 1.48511,-4.63885 2.95855,-9.28126 4.42578,-13.92579 -0.92813,0.18562 -1.85625,0.37125 -2.8125,0.5625 C 287,686 287,686 284,685 c -0.3125,-2.25 -0.3125,-2.25 0,-5 2.7073,-2.78934 4.64464,-3.91055 8.42969,-4.86328 2.69917,-1.13761 3.45301,-1.90367 4.78979,-4.55957 1.07116,-3.18975 1.98523,-6.38602 2.84302,-9.63965 3.46225,-12.65023 8.05919,-24.71913 19.875,-31.66406 C 331.98267,623.04419 348.83328,620.24151 361,628 Z M 222.34375,694.23828 C 214.46608,705.89931 207.87481,720.6538 209,735 c 0.79512,2.9817 1.32095,4.46646 3.75,6.375 4.19631,1.16564 7.2809,0.0885 11.125,-1.75 11.01726,-8.00993 15.59794,-22.47243 19.4375,-34.875 0.267,-0.85199 0.53399,-1.70398 0.80908,-2.58179 1.75178,-5.89595 3.35384,-11.39442 0.31592,-17.10571 -2.3479,-2.34337 -2.3479,-2.34337 -5.8125,-2.625 -7.20896,1.11863 -12.06312,6.10033 -16.28125,11.80078 z M 401.625,690.25 c -10.30567,12.27083 -16.07656,28.92861 -16.05859,44.75391 0.47345,3.27154 1.08564,4.69751 3.43359,6.99609 3.46129,0.67868 5.80035,0.60336 8.98828,-1 13.00678,-8.89007 17.53268,-24.70793 21.88672,-39.0625 0.21544,-0.70197 0.43087,-1.40395 0.65283,-2.1272 1.40219,-4.83679 2.42062,-9.30367 0.59717,-14.1228 -1.02939,-1.84642 -1.02939,-1.84642 -3.125,-2.6875 -7.51192,-0.7223 -11.30154,2.06175 -16.375,7.25 z"
     fill="#fed40b"
     id="path4" />
  <path
     d="m 739,131 c 2.20915,3.17754 2.01473,4.9056 1.41797,8.73047 -0.39052,1.49096 -0.80236,2.97643 -1.23047,4.45703 -0.2301,0.82387 -0.4602,1.64774 -0.69727,2.49658 C 723.71062,198.19428 698.25956,244.91045 664,286 c -0.92336,1.11964 -1.84654,2.23943 -2.76953,3.35937 -10.06963,12.14128 -20.9795,23.4692 -32.10547,34.64063 -0.78439,0.78907 -1.56879,1.57813 -2.37695,2.39111 -4.20088,4.1893 -8.48635,8.21101 -12.9834,12.08057 -2.29485,1.98752 -4.49227,4.07214 -6.70215,6.15332 -10.19465,9.2819 -21.48221,17.28223 -32.625,25.375 -0.72518,0.52763 -1.45036,1.05526 -2.19751,1.59888 -3.48339,2.50889 -7.00059,4.96824 -10.57983,7.33862 -0.63156,0.42152 -1.26312,0.84305 -1.91382,1.27734 C 558,381 558,381 555,380 c 0.60586,-0.77602 1.21172,-1.55203 1.83594,-2.35156 C 563.10753,369.57864 569.11999,361.35817 575,353 c 0.86891,-1.2317 0.86891,-1.2317 1.75537,-2.48828 1.89661,-2.68961 3.78997,-5.38148 5.68213,-8.07422 0.6036,-0.85731 1.20721,-1.71461 1.8291,-2.5979 4.71077,-6.70745 4.71077,-6.70745 8.7334,-13.8396 0.74379,-0.72059 1.48758,-1.44117 2.25391,-2.18359 3.01288,-3.09004 5.30116,-6.30012 7.68359,-9.87891 0.96785,-1.4303 1.93664,-2.85996 2.90625,-4.28906 0.7657,-1.13164 0.7657,-1.13164 1.54688,-2.28614 2.81115,-4.12632 5.67975,-8.21225 8.54687,-12.2998 0.59281,-0.84627 1.18562,-1.69254 1.79639,-2.56445 3.27492,-4.67157 6.56297,-9.33357 9.86108,-13.98877 C 634.50864,268.74894 641.27269,258.88954 648,249 c -0.66,-1.32 -1.32,-2.64 -2,-4 -7.422,8.91612 -14.52843,17.96386 -21.25586,27.4165 -3.36194,4.71058 -6.8221,9.31021 -10.43164,13.8335 -4.86628,6.11394 -9.44892,12.38779 -13.93311,18.78613 -1.46408,2.08445 -2.93894,4.16101 -4.41455,6.23731 -7.26137,10.25517 -14.30786,20.64686 -21.27734,31.10156 -0.41602,0.62358 -0.83205,1.24717 -1.26068,1.88965 -5.2183,7.82809 -10.35887,15.70107 -15.42023,23.63159 C 550.34365,379.74913 550.34365,379.74913 546,384 c 1.3119,-9.10627 3.39661,-17.87838 5.8125,-26.75 0.35758,-1.32914 0.715,-2.65832 1.07227,-3.98755 2.22858,-8.24472 4.60992,-16.41916 7.30273,-24.52417 0.95473,-2.74158 0.95473,-2.74158 0.8125,-5.73828 0.66,0 1.32,0 2,0 0.19336,-0.71285 0.38672,-1.4257 0.58594,-2.16016 4.21631,-15.5085 4.21631,-15.5085 6.72656,-20.39453 4.06758,-8.00333 7.8371,-16.09872 11.40234,-24.33935 2.00081,-4.54821 4.18199,-8.76619 6.88379,-12.93555 1.65395,-2.5616 3.23295,-5.16327 4.81153,-7.77197 0.59748,-0.98485 1.19496,-1.96969 1.81054,-2.98438 1.23238,-2.03348 2.46415,-4.06734 3.69532,-6.10156 4.07654,-6.71639 8.00252,-13.16498 13.20117,-19.08203 1.95844,-2.32007 3.81799,-4.70651 5.67334,-7.10938 4.97828,-6.44514 10.17865,-12.50851 15.79931,-18.40234 2.50591,-2.68622 2.50591,-2.68622 4.47657,-5.9375 2.02888,-2.91832 2.86321,-3.3367 5.93359,-4.78125 2.01175,-1.94584 3.94952,-3.91032 5.875,-5.9375 6.05154,-6.20748 12.49281,-11.55647 19.41065,-16.7627 1.66943,-1.26575 3.31744,-2.55467 4.96044,-3.85449 C 724.53926,124.77703 724.53926,124.77703 739,131 Z m -71,85 c -2.34287,2.67248 -2.34287,2.67248 -3,6 -0.66,0 -1.32,0 -2,0 -1.58826,1.71498 -1.58826,1.71498 -3.125,3.875 -0.53883,0.7193 -1.07766,1.43859 -1.63281,2.17969 C 656.8206,229.89626 656.8206,229.89626 657,232 c -0.99,0.33 -1.98,0.66 -3,1 -1.67157,1.71453 -1.67157,1.71453 -3.1875,3.8125 -0.52981,0.68707 -1.05961,1.37414 -1.60547,2.08203 -1.5386,2.27935 -1.5386,2.27935 -1.20703,6.10547 0.66,0.66 1.32,1.32 2,2 5.38033,-7.70456 10.75108,-15.41541 15.75,-23.375 0.65484,-1.03898 1.30969,-2.07797 1.98437,-3.14844 0.62649,-1.2259 0.62649,-1.2259 1.26563,-2.47656 -0.33,-0.66 -0.66,-1.32 -1,-2 z"
     fill="#38bda2"
     id="path5" />
  <path
     d="m 271,133 c 6.02562,0.25559 10.95137,2.43619 16.375,4.9375 0.87632,0.40114 1.75264,0.80228 2.65552,1.21558 23.66087,11.05058 45.40503,26.8179 64.50073,44.56567 2.2383,2.0683 4.52291,4.05681 6.84375,6.03125 3.2806,2.8463 5.90494,5.8683 8.625,9.25 1.65845,1.67484 3.32589,3.34081 5,5 13.47125,13.74068 24.72882,29.76884 35,46 0.36223,0.56896 0.72445,1.13792 1.09766,1.72412 C 435.14152,289.7828 457.58736,339.72954 462,385 c -4.19102,-1.39701 -5.0534,-4.29337 -7,-8 -4.89288,-8.97812 -10.34393,-17.48738 -16,-26 -0.68868,-1.03721 -1.37736,-2.07442 -2.08691,-3.14307 -4.25977,-6.41158 -8.53286,-12.81418 -12.81272,-19.21237 -2.01825,-3.01901 -4.0276,-6.04349 -6.02225,-9.07815 -5.88395,-8.94338 -12.10149,-17.61925 -18.40917,-26.26807 -1.64282,-2.26236 -3.2715,-4.53417 -4.89551,-6.81006 -11.20467,-15.68243 -23.08777,-30.78886 -35.30567,-45.6914 -1.41148,-1.72797 -2.81255,-3.46377 -4.20996,-5.20313 -0.80695,-1.00031 -1.6139,-2.00062 -2.44531,-3.03125 -0.6948,-0.86496 -1.38961,-1.72992 -2.10547,-2.62109 -1.56775,-2.0286 -1.56775,-2.0286 -3.70703,-2.94141 -1,-1.66667 -2,-3.33333 -3,-5 -0.66,-0.33 -1.32,-0.66 -2,-1 12.57768,20.06446 25.80763,39.62557 39.52637,58.9248 2.60296,3.66554 5.19404,7.33947 7.78613,11.0127 0.7622,1.07955 0.7622,1.07955 1.53979,2.18091 2.5566,3.62209 5.10816,7.24751 7.64771,10.88159 7.79448,11.14572 15.65152,22.24262 23.63428,33.25439 3.74809,5.17733 7.44357,10.38921 11.11572,15.62061 4.16074,5.92633 8.41559,11.75743 12.8125,17.51172 1.41929,1.91433 2.76384,3.88468 4.0625,5.88281 1.5922,2.79081 1.5922,2.79081 3.875,3.73047 0,0.99 0,1.98 0,3 -13.93227,-6.58107 -26.07377,-16.40364 -38,-26 -1.05303,-0.83638 -2.10637,-1.67238 -3.16016,-2.50781 -5.52622,-4.43689 -10.79172,-9.10533 -15.95849,-13.95191 C 394.16014,337.96836 394.16014,337.96836 391,336 c 0,-0.66 0,-1.32 0,-2 -0.54874,-0.22349 -1.09748,-0.44698 -1.66284,-0.67725 -3.03828,-1.71956 -5.30235,-4.02128 -7.73169,-6.48681 -0.51044,-0.5109 -1.02089,-1.02181 -1.5468,-1.54819 -1.07898,-1.082 -2.15554,-2.16642 -3.22981,-3.25308 -1.62028,-1.63835 -3.24823,-3.26874 -4.87769,-4.89795 C 366.42736,311.59384 361.08308,305.95297 356,300 c -1.41324,-1.54481 -2.8294,-3.08695 -4.25,-4.625 C 346.16187,289.17863 341.0756,282.6164 336,276 c -0.76313,-0.99 -1.52625,-1.98 -2.3125,-3 C 315.91853,249.6465 300.68635,224.45239 288,198 c -0.39333,-0.81179 -0.78665,-1.62357 -1.1919,-2.45996 -5.0837,-10.55678 -9.59054,-21.17192 -13.3081,-32.29004 -0.4892,-1.46276 -0.4892,-1.46276 -0.98828,-2.95508 C 266.9673,143.13081 266.9673,143.13081 269,135 c 0.66,-0.66 1.32,-1.32 2,-2 z m 66,80 c 1,2 1,2 1,2 z m 2,3 c 0.33,0.99 0.66,1.98 1,3 0,-0.99 0,-1.98 0,-3 -0.33,0 -0.66,0 -1,0 z"
     fill="#f3574a"
     id="path6" />
  <path
     d="m 136,624 c 0,0.66 0,1.32 0,2 0.78375,-0.0412 1.5675,-0.0825 2.375,-0.125 C 141,626 141,626 143,628 c 0.0249,2.00049 0.0249,2.00049 -0.28906,4.44531 -0.1099,0.90138 -0.21979,1.80276 -0.33301,2.73145 C 142.25321,636.10843 142.1285,637.0401 142,638 c -0.21623,1.72655 -0.43237,3.45312 -0.64844,5.17969 -0.1169,0.91209 -0.2338,1.82418 -0.35425,2.76391 C 138.75756,663.57822 137.38787,681.28203 136,699 c 0.30067,-0.61182 0.60135,-1.22364 0.91113,-1.854 6.9245,-14.05574 14.0844,-27.94131 21.6958,-41.6377 1.34236,-2.41699 2.67508,-4.83909 4.00635,-7.26221 0.79494,-1.43655 1.59047,-2.87276 2.38672,-4.30859 0.34958,-0.6368 0.69915,-1.27359 1.05933,-1.92969 4.04975,-7.2381 8.03674,-12.1798 15.94067,-15.00781 4.39937,-0.85658 8.84333,-1.25845 13.30469,-1.64063 3.63284,-0.21471 3.63284,-0.21471 6.69531,-1.35937 0.33,0.33 0.66,0.66 1,1 2.31282,0.52928 4.63722,0.96334 6.96875,1.40234 1.00547,0.29584 1.00547,0.29584 2.03125,0.59766 0.33,0.66 0.66,1.32 1,2 -1.59936,3.19872 -3.69843,5.88781 -5.90234,8.67969 -2.94252,3.9278 -4.8679,7.74732 -6.59766,12.32031 -0.47868,1.23182 -0.47868,1.23182 -0.96704,2.48852 C 180.20995,696.68839 180.20995,696.68839 172,743 c 1.39196,2.78392 3.15576,2.97899 6,4 0.3125,2.75 0.3125,2.75 0,6 -3.66707,4.14024 -8.66885,5.96245 -14,7 -5.16969,0.2725 -9.44664,-0.11921 -13.5625,-3.4375 -4.29319,-4.51335 -3.84951,-8.33966 -3.75391,-14.40479 0.20779,-3.92846 1.06372,-7.35474 2.27735,-11.11083 0.21648,-0.67019 0.43296,-1.34037 0.656,-2.03086 3.50217,-10.64728 7.4835,-21.13493 11.38306,-31.64102 1.58463,-4.28337 3.16722,-8.5675 4.75,-12.85156 0.37471,-1.0129 0.74943,-2.02581 1.1355,-3.0694 2.75913,-7.4658 5.46877,-14.94729 8.1145,-22.45404 -2.37749,4.29029 -4.7519,8.58228 -7.125,12.875 -0.36158,0.6537 -0.72316,1.30739 -1.0957,1.9809 -4.42698,8.00706 -8.80522,16.03573 -13.10035,24.11456 C 145.89822,712.58945 137.66607,726.88967 129,741 c -0.48404,0.78939 -0.96809,1.57878 -1.4668,2.39209 -1.17369,1.88718 -2.3728,3.75236 -3.5957,5.60791 -0.60973,0.92812 -1.21945,1.85625 -1.84766,2.8125 -2.82013,2.95191 -5.23113,3.86025 -9.08984,5.1875 -2.8125,-0.125 -2.8125,-0.125 -5,-1 -2.17596,-3.26394 -2.22251,-3.59866 -1.75415,-7.23242 0.11012,-0.89195 0.22025,-1.7839 0.33371,-2.70288 0.13875,-1.01135 0.27749,-2.0227 0.42044,-3.0647 0.14737,-1.12672 0.29473,-2.25344 0.44656,-3.41431 0.43169,-3.25005 0.87526,-6.49802 1.32593,-9.74546 0.30074,-2.17075 0.59832,-4.3419 0.89497,-6.5132 0.84256,-6.16616 1.6871,-12.33204 2.54226,-18.49646 0.52566,-3.79089 1.04469,-7.58263 1.55958,-11.37499 0.19571,-1.43227 0.39382,-2.86422 0.5945,-4.29581 1.08434,-7.74204 1.95887,-15.32645 1.6362,-23.15977 0.66,0 1.32,0 2,0 -0.33,-1.65 -0.66,-3.3 -1,-5 -2.90632,7.71994 -5.80102,15.44371 -8.64651,23.18631 -1.23507,3.3575 -2.47748,6.71227 -3.72043,10.06686 -0.62798,1.69975 -1.25301,3.4006 -1.875,5.10254 -3.481967,9.51884 -7.16836,18.87121 -11.484622,28.04663 -0.365354,0.78003 -0.730708,1.56006 -1.107132,2.36373 C 87.224816,735.87889 83.758988,741.12702 79,746 c -0.635508,0.65098 -1.271016,1.30195 -1.925781,1.97266 C 69.52516,755.09812 60.429214,759.45768 50,760 40.751225,759.46431 32.33872,757.77145 25.75,750.9375 20.57348,744.34663 18.07923,736.28692 19,728 20.51003,719.60046 23.98626,713.75235 30.84766,708.61719 36.268269,705.43383 41.854475,705.10934 48,706 c 2.965257,0.92842 5.636927,1.95285 8,4 0.710938,2.14062 0.710938,2.14062 1,4 -1.212363,0.40219 -1.212363,0.40219 -2.449219,0.8125 -6.246773,2.29074 -10.713449,4.0355 -13.785156,10.14453 C 38.567726,730.82183 38.758763,735.17278 41,741 c 1.292647,1.96431 1.292647,1.96431 3,3 0.99,0 1.98,0 3,0 0,0.66 0,1.32 0,2 1.543647,-0.25931 3.084864,-0.53309 4.625,-0.8125 1.287773,-0.22623 1.287773,-0.22623 2.601563,-0.45703 9.779208,-2.57565 14.832185,-9.78825 19.777343,-18.09766 C 80.61314,714.359 85.177507,701.04178 90,688 c 0.230057,-0.62183 0.460115,-1.24366 0.697144,-1.88434 3.040323,-8.22187 6.051761,-16.4541 9.052856,-24.69037 1.80181,-4.93738 3.61822,-9.86932 5.4375,-14.80029 0.29157,-0.79076 0.58314,-1.58152 0.88354,-2.39624 C 106.7138,642.48575 107.35685,640.74286 108,639 96.617457,640.82299 87.621886,642.81102 80.1875,652.26562 76.229434,658.04648 76.150295,665.2115 77,672 c 0.95429,1.69325 1.948956,3.36504 3,5 -0.0625,2.6875 -0.0625,2.6875 -1,5 -4.499988,2.97321 -8.945031,1.9699 -14,1 -3.816122,-1.41031 -4.905118,-2.86922 -7.3125,-6.1875 -3.151083,-6.94524 -2.833753,-16.27256 -0.992187,-23.56641 C 57.626551,650.99625 58.684628,649.04705 60,647 c 0.4125,-0.6832 0.825,-1.36641 1.25,-2.07031 7.31201,-10.92647 19.984754,-16.64557 32.490723,-19.3396 C 107.60375,622.97511 121.9577,623.72915 136,624 Z"
     fill="#fed40b"
     id="path7" />
  <path
     d="m 580.8125,629.125 c 5.08712,4.08657 7.78808,8.81281 8.63281,15.28906 0.28569,8.89444 -1.03097,14.50769 -6.69531,21.27344 -5.65556,4.75581 -10.32755,7.71951 -17.76953,8.5625 -2.554,-0.3224 -3.37457,-1.30469 -4.98047,-3.25 1.29641,-4.32138 3.01636,-8.18603 5.09766,-12.16797 1.64923,-3.34844 2.06216,-6.0875 2.08984,-9.76953 0.0142,-0.85465 0.0284,-1.7093 0.043,-2.58984 C 566.97854,643.7698 566.55929,642.22125 565,640 c -5.0005,-2.43153 -10.49253,-2.34063 -15.75,-0.87109 -14.04245,5.43657 -21.46302,18.69312 -27.33447,31.75976 C 514.59535,687.76997 508.53714,706.62787 514,725 c 1.41336,3.39207 2.50642,4.63298 5.4375,6.8125 5.8372,1.94573 12.25658,2.65856 18.01172,0.0977 2.09967,-1.29993 2.09967,-1.29993 3.92969,-2.71875 C 543,728 543,728 546,727 c 1.14097,-2.2774 1.14097,-2.2774 2,-5 0.33,-0.87398 0.66,-1.74797 1,-2.64844 1.86265,-5.07862 3.60603,-10.12415 5,-15.35156 -0.62648,-0.19336 -1.25297,-0.38672 -1.89844,-0.58594 -0.81726,-0.26039 -1.63453,-0.52078 -2.47656,-0.78906 -0.81211,-0.25523 -1.62422,-0.51047 -2.46094,-0.77344 C 545,701 545,701 543,699 c 0.125,-2 0.125,-2 1,-4 3.49973,-2.39259 6.73429,-2.24441 10.88281,-2.23047 0.65548,4.6e-4 1.31096,9.2e-4 1.9863,10e-4 1.38007,0.003 2.76015,0.0109 4.14017,0.0233 2.11552,0.0183 4.2306,0.0205 6.34619,0.0203 10.3492,0.0379 10.3492,0.0379 12.64453,1.18555 -0.19787,5.73819 -1.27128,9.95154 -3.67188,15.17578 -3.81603,8.57998 -6.61723,17.44562 -9.45312,26.38672 -0.51632,1.60892 -1.03325,3.21764 -1.55078,4.82617 -2.84111,8.8502 -5.61694,17.71922 -8.32422,26.61133 17.29477,8.47009 35.59704,15.33755 54,21 0.92941,0.29391 1.85883,0.58781 2.81641,0.89062 14.27315,4.23832 31.06707,6.78716 45.0625,0.39844 5.10496,-3.10246 7.85344,-7.02777 9.62109,-12.66406 1.5,-3.625 1.5,-3.625 4.4375,-4.875 3.0625,0.25 3.0625,0.25 5.375,2.0625 3.78887,4.91149 3.22932,10.18989 2.6875,16.1875 -2.57425,8.57616 -9.65716,14.3589 -17,19 -17.56914,8.9399 -41.02881,2.71402 -58.66797,-2.81641 -12.72859,-4.23234 -24.87322,-10.02713 -36.91797,-15.89062 -0.8652,-0.41911 -1.7304,-0.83821 -2.62182,-1.27002 -1.60024,-0.78113 -3.19469,-1.57426 -4.78174,-2.38184 -5.73496,-2.83666 -5.73496,-2.83666 -12.0105,-2.64111 -1.816,2.04338 -3.06527,3.75273 -4.4375,6.0625 -0.77609,1.20516 -1.55734,2.40702 -2.34375,3.60547 -0.3777,0.57927 -0.75539,1.15854 -1.14453,1.75537 -7.37111,10.81877 -20.55741,18.51584 -33.07422,21.57666 -8.82091,0.76626 -17.33502,1.00603 -25,-4 -0.57106,-0.36223 -1.14211,-0.72445 -1.73047,-1.09766 -4.25985,-3.10285 -6.8129,-6.907 -8.26953,-11.90234 -1.01853,-8.50304 -0.27457,-15.57864 4.85156,-22.5 8.80165,-10.45002 19.01871,-15.73842 32.58985,-16.93359 4.18965,-0.30535 8.35708,-0.54727 12.55859,-0.56641 0.33,0.33 0.66,0.66 1,1 1.84892,0.23364 3.70488,0.41304 5.5625,0.5625 1.01191,0.0838 2.02383,0.16758 3.06641,0.25391 0.78246,0.0606 1.56492,0.12117 2.37109,0.18359 0.53453,-1.24421 1.05209,-2.49571 1.5625,-3.75 0.29004,-0.69609 0.58008,-1.39219 0.87891,-2.10937 0.63691,-2.44076 0.36108,-3.781 -0.44141,-6.14063 -1.0725,0.30938 -2.145,0.61875 -3.25,0.9375 -11.44583,2.81588 -21.17288,2.99667 -31.4375,-3.0625 -9.29965,-6.28636 -14.28678,-15.23632 -16.5625,-26.125 -3.51716,-22.87738 3.11961,-47.31534 16.57031,-66.03125 11.5076,-15.5653 24.91315,-26.30947 44.01172,-31.33204 11.60956,-1.68279 24.27543,-1.53673 34.48047,4.73828 z M 539,747 c -0.33,0.99 -0.66,1.98 -1,3 0.66,0 1.32,0 2,0 0.33,-0.99 0.66,-1.98 1,-3 -0.66,0 -1.32,0 -2,0 z m -46,36 c -2.00223,3.20357 -2.00424,4.75814 -1.9375,8.5625 0.71029,3.46129 0.71029,3.46129 2.8125,5.875 4.75273,2.37636 8.92173,2.48578 14.125,1.5625 8.52984,-3.62826 15.80916,-11.86257 20,-20 0,-1.32 0,-2.64 0,-4 -13.6135,-3.60452 -25.04727,-2.92373 -35,8 z m 57,-2 c 0,0.66 0,1.32 0,2 0.99,-0.33 1.98,-0.66 3,-1 -0.99,-0.33 -1.98,-0.66 -3,-1 z"
     fill="#fed30b"
     id="path8" />
  <path
     d="m 310.54297,276.82812 c 3.20713,2.66349 6.33734,5.4066 9.45703,8.17188 0.88301,0.77214 1.76602,1.54429 2.67578,2.33984 C 331.35545,295.0206 339.52281,303.14289 347,312 c 1.08668,1.25296 1.08668,1.25296 2.19531,2.53125 6.92981,8.11077 13.13043,16.68499 19.31104,25.37451 2.08297,2.92052 4.19291,5.82054 6.30615,8.71924 0.6252,0.85851 1.25039,1.71703 1.89453,2.60156 0.42668,0.58523 0.85336,1.17047 1.29297,1.77344 -0.33,0.65999 -0.66,1.31999 -1,2 -9.19201,-5.00113 -17.72099,-10.50381 -26.16406,-16.67481 -3.85111,-2.77976 -7.78239,-5.44438 -11.70313,-8.12451 -3.55592,-2.43086 -7.1026,-4.87321 -10.63281,-7.34131 -0.73235,-0.50991 -1.4647,-1.01981 -2.21924,-1.54517 -1.41235,-0.98385 -2.82228,-1.97119 -4.22949,-2.9624 C 318.82923,315.85552 318.82923,315.85552 315,315 c -1.14404,-1.1846 -2.28773,-2.36954 -3.42969,-3.55616 -3.00376,-2.76185 -6.56885,-4.69227 -10.07031,-6.75634 -1.62908,-0.97628 -3.25798,-1.95284 -4.88672,-2.92969 -0.79325,-0.47277 -1.58651,-0.94553 -2.40381,-1.43262 -2.86378,-1.71764 -5.6921,-3.48985 -8.52197,-5.26269 -5.76739,-3.55313 -11.62309,-6.94401 -17.5,-10.3125 -0.88405,-0.50782 -1.76811,-1.01563 -2.67895,-1.53882 C 260.41166,280.3056 255.27315,277.57226 250,275 c 6.90237,5.76804 14.11929,10.90528 21.63269,15.83667 3.29061,2.16017 6.57036,4.33675 9.85169,6.51098 0.6883,0.45549 1.37659,0.91099 2.08575,1.38028 7.36026,4.87615 14.67105,9.82473 21.97852,14.77951 3.59977,2.4407 7.20137,4.8787 10.80291,7.31677 0.67425,0.45646 1.3485,0.91292 2.04319,1.38321 7.84033,5.30687 15.68053,10.61217 23.60525,15.79258 0.71301,0.46744 1.42603,0.93489 2.16065,1.4165 2.16846,1.4143 4.34569,2.81387 6.52685,4.2085 0.63632,0.41483 1.27263,0.82967 1.92822,1.25707 4.04621,2.55327 7.72597,4.00567 12.38428,5.11793 -2,2 -2,2 -4.32373,2.05566 C 309.51196,346.9709 270.33349,328.26809 230,297 c -0.60392,-0.46503 -1.20785,-0.93006 -1.83008,-1.40918 -8.02496,-6.18537 -15.83891,-12.58748 -23.52685,-19.18604 -1.66177,-1.42078 -3.33291,-2.82981 -5.00635,-4.23682 -6.5246,-5.50582 -12.88962,-11.16109 -19.13672,-16.98046 -0.65847,-0.61005 -1.31694,-1.2201 -1.99536,-1.84864 -3.10782,-2.92081 -6.14085,-5.9054 -9.03589,-9.03808 -0.5008,-0.53843 -1.0016,-1.07685 -1.51758,-1.6316 C 167,241 167,241 167.21167,238.86743 168,237 168,237 170.14453,235.82031 c 3.17975,-0.91347 6.26629,-1.48298 9.54297,-1.94531 1.13824,-0.16758 2.27649,-0.33516 3.44922,-0.50782 44.96775,-4.27398 92.95485,15.51327 127.40625,43.46094 z"
     fill="#a2397e"
     id="path9" />
  <path
     d="m 809,232 c 2.97,0 5.94,0 9,0 0,0.66 0,1.32 0,2 1.03447,-0.0348 1.03447,-0.0348 2.08984,-0.0703 6.20457,-0.11916 11.96249,0.17536 17.91016,2.07031 1,1 1,1 1.37109,3.20312 -0.51652,3.89294 -2.65311,5.86122 -5.30859,8.54688 -0.49492,0.51788 -0.98984,1.03576 -1.49976,1.56934 -1.50931,1.57195 -3.03531,3.12633 -4.56274,4.68066 -0.87914,0.91781 -1.75828,1.83562 -2.66406,2.78125 -4.43055,4.56043 -4.43055,4.56043 -6.33594,6.21875 -0.66,0 -1.32,0 -2,0 0,0.66 0,1.32 0,2 -1.57287,1.41438 -3.2114,2.75604 -4.875,4.0625 -3.72804,2.97485 -7.32658,5.99568 -10.8125,9.25 -6.03801,5.4865 -12.55742,10.27881 -19.13428,15.0918 -2.18664,1.60186 -4.36414,3.21563 -6.5415,4.83007 C 740.70762,323.97911 704.27444,340.58105 662,350 c 0.33,0.66 0.66,1.32 1,2 -1.09312,-0.20625 -2.18625,-0.4125 -3.3125,-0.625 -5.40909,-0.70891 -10.41414,0.45207 -15.6875,1.625 1,-3 1,-3 3.54688,-4.33984 1.70929,-0.82178 1.70929,-0.82178 3.45312,-1.66016 2.80835,-1.77027 5.52671,-3.66468 8.25,-5.5625 0.7193,-0.49436 1.43859,-0.98871 2.17969,-1.49805 3.9725,-2.73977 3.9725,-2.73977 7.57031,-5.93945 1.60868,-1.06669 3.23686,-2.10413 4.875,-3.125 4.26009,-2.68436 8.48925,-5.40724 12.6875,-8.1875 0.99129,-0.65613 1.98258,-1.31227 3.00391,-1.98828 2.4703,-1.6193 2.4703,-1.6193 4.43359,-3.69922 1.35919,-0.77829 2.73691,-1.52452 4.125,-2.25 8.07052,-4.15977 8.07052,-4.15977 13.875,-10.75 2.0245,-1.03843 4.09384,-1.91488 6.1875,-2.80469 2.00702,-1.06139 2.00702,-1.06139 2.5625,-3.32812 0.0825,-0.61617 0.165,-1.23235 0.25,-1.86719 1.42313,-0.18563 1.42313,-0.18563 2.875,-0.375 3.21167,-0.34187 3.21167,-0.34187 5.125,-2.625 -0.66,-0.66 -1.32,-1.32 -2,-2 -19.71324,10.95493 -38.2749,23.97375 -56.46313,37.27734 C 657.31578,337.92063 643.65424,346.98359 630,356 c -0.66,-0.33 -1.32,-0.66 -2,-1 23.5603,-32.85136 23.5603,-32.85136 37,-48 0.45198,-0.51514 0.90396,-1.03028 1.36963,-1.56104 C 703.47482,263.24011 753.43407,238.89501 809,233 c 0,-0.33 0,-0.66 0,-1 z m -52,41 c -0.33,0.66 -0.66,1.32 -1,2 0.99,-0.33 1.98,-0.66 3,-1 -0.66,-0.33 -1.32,-0.66 -2,-1 z m -3,2 c -0.33,0.66 -0.66,1.32 -1,2 0.99,-0.33 1.98,-0.66 3,-1 -0.66,-0.33 -1.32,-0.66 -2,-1 z m -4,2 c 0,0.66 0,1.32 0,2 0.99,-0.33 1.98,-0.66 3,-1 -0.99,-0.33 -1.98,-0.66 -3,-1 z m -7.35547,3.65234 c -1.28342,0.75144 -2.56059,1.51363 -3.83203,2.28516 -0.6542,0.38607 -1.3084,0.77215 -1.98242,1.16992 -1.61543,0.95511 -3.22349,1.92268 -4.83008,2.89258 0.33,0.66 0.66,1.32 1,2 0.99,-0.66 1.98,-1.32 3,-2 0.66,0.33 1.32,0.66 2,1 0.99,-0.66 1.98,-1.32 3,-2 0,-0.66 0,-1.32 0,-2 0.76312,-0.10312 1.52625,-0.20625 2.3125,-0.3125 2.85809,-0.73114 3.84493,-1.45702 5.6875,-3.6875 -3.11856,-1.42996 -3.11856,-1.42996 -6.35547,0.65234 z M 732,290 c -0.33,0.66 -0.66,1.32 -1,2 0.99,-0.33 1.98,-0.66 3,-1 -0.66,-0.33 -1.32,-0.66 -2,-1 z"
     fill="#bed940"
     id="path10" />
  <path
     d="m 621,670 c 2,3 2,3 1.75781,5.48047 -0.20883,0.89332 -0.41765,1.78664 -0.63281,2.70703 -0.20367,0.90105 -0.40734,1.80211 -0.61719,2.73047 -0.25136,1.0306 -0.25136,1.0306 -0.50781,2.08203 0.36609,-0.4357 0.73219,-0.87141 1.10937,-1.32031 5.82616,-6.40878 13.10729,-10.98533 21.76563,-12.24219 4.52806,0.81505 7.81536,2.11738 10.9375,5.5625 3.08798,5.20082 2.94796,10.81769 1.57422,16.56641 -2.62412,7.5718 -7.11663,11.93403 -13.94922,15.93359 -3.4142,0.70035 -6.06921,0.32618 -9.4375,-0.5 -2,-3 -2,-3 -1.75,-5.4375 C 632,699 632,699 633.0625,697.125 c 1.34612,-3.05121 1.06402,-5.8354 0.9375,-9.125 -5.57061,0.94898 -8.52398,4.79954 -12,9 -10.3426,14.62652 -16.25513,33.08338 -20.32886,50.37988 C 600.58356,751.7851 599.25849,754.80174 596,758 c -3.1903,1.35871 -6.62414,1.19887 -10.0625,1.25 -1.04285,0.0258 -2.0857,0.0516 -3.16016,0.0781 C 580,759 580,759 578.06641,757.92187 c -1.96461,-3.5406 -0.40426,-7.69188 0.62077,-11.42367 0.89394,-2.95861 1.82554,-5.90294 2.76985,-8.84586 0.51635,-1.63333 0.51635,-1.63333 1.04314,-3.29966 1.09894,-3.47339 2.20523,-6.94438 3.31233,-10.41518 1.44674,-4.55252 2.89034,-9.10603 4.33203,-13.66016 0.34347,-1.08375 0.68693,-2.16749 1.0408,-3.28408 2.4085,-7.62844 4.70769,-15.27585 6.81467,-22.99326 -1.65,-0.66 -3.3,-1.32 -5,-2 0.0625,-2.25 0.0625,-2.25 1,-5 2.22272,-1.69776 4.46444,-2.75446 7,-4 0.66,-0.33 1.32,-0.66 2,-1 5.91449,-1.34376 11.93175,-2.64556 18,-2 z"
     fill="#fed40b"
     id="path11" />
</svg>
